<svg xmlns="http://www.w3.org/2000/svg" width="154" height="44" viewBox="0 0 154 44"><g transform="translate(-408 248.001)"><rect width="154" height="44" transform="translate(408 -248.001)" fill="#fff" opacity="0"/><path d="M331.543,25.96l15.23.047s0-5.207-7.581-5.207c-6.489,0-7.649,5.16-7.649,5.16m-.166,2.12c.749,9.024,13.658,7.476,15.275,3.305l2.655-.023c-.212,1.356-2.379,5.5-9.469,5.5-8.919,0-11.281-6.017-11.09-9.6a8.636,8.636,0,0,1,5.9-7.919,13.727,13.727,0,0,1,10.237.261c3.111,1.364,4.766,4.756,4.766,8.476Z" transform="translate(183.629 -253.699)"/><path d="M20.59,21.819l3.113.022,4.649,8.517L23.773,38.88H20.56L6.719,24.542,3.407,30.357l4.485,8.575-3.113-.053L0,30.357,4.679,21.78l2.949.084L21.809,36.374l3.273-6.017s-4.314-8.149-4.492-8.538" transform="translate(411 -255.967)"/><path d="M270.147,21.98h2.566V36.643l12.539-.009-.008,2.383h-15.1Z" transform="translate(224.152 -256.104)"/><path d="M429.574,28.048a110.24,110.24,0,0,0-12.307.9,2.6,2.6,0,0,0-2.3,1.982c-.494,1.79.5,3.305,2.568,3.737a13.69,13.69,0,0,0,7.715-.483c2.953-1.4,4.317-2.314,4.317-6.138m0-1.68c0-3.718-2.519-5.523-6.873-5.523-2.042,0-5.264-.112-7.037,2.606h-2.844c1-3.082,5.393-4.749,9.916-4.684,4.641.067,9.4,1.606,9.4,7.109v7.514c0,1.083.286,3.42.286,3.42h-2.5a.355.355,0,0,1-.353-.357V33.193a11.173,11.173,0,0,1-8.322,3.871c-7.77.235-8.945-2.237-9.19-4.985-.182-2.062.966-3.923,3.743-4.708,2.192-.725,13.764-1,13.764-1" transform="translate(126.01 -253.895)"/><path d="M207.123,26.646h-2.917s-.549-3.236-7.034-3.236c-5.153,0-7.365,3.992-7.252,6.479.128,2.785,1.917,6.337,7.252,6.337,6.483,0,6.981-3.342,6.981-3.342l2.975.008c-.261,1.712-1.9,5.814-9.954,5.814s-9.92-6.383-9.943-8.777c-.03-3.024,1.974-8.853,9.943-8.853,8.764,0,9.835,5.1,9.952,5.566" transform="translate(281.502 -255.482)"/><path d="M126.641,22.484l.021,8.944c.187,4.281-2.006,8.249-9.975,8.249s-9.964-4.428-9.973-7.67l-.013-9.523,3.134.009v8.994c.008,3.387,1.372,5.79,6.849,5.79s6.8-2.77,6.83-5.14c.032-2.908,0-9.652,0-9.652h3.126Z" transform="translate(337.199 -256.449)"/><path d="M0,.018,9.726-.011,9.719,2.364,0,2.393Z" transform="translate(453.88 -238.947) rotate(-12.123)"/></g></svg>