<svg xmlns="http://www.w3.org/2000/svg" width="24.198" height="16.165" viewBox="0 0 24.198 16.165"><rect width="24.198" height="1.247" transform="translate(0 11.183)" fill="#f1f2f2"/><rect width="12.728" height="1.247" transform="translate(11.47 1.224)" fill="#f1f2f2"/><rect width="12.725" height="1.245" transform="translate(11.473 3.716)" fill="#f1f2f2"/><rect width="12.725" height="1.247" transform="translate(11.473 6.203)" fill="#f1f2f2"/><rect width="24.198" height="1.244" transform="translate(0 8.697)" fill="#f1f2f2"/><rect width="24.198" height="1.244" transform="translate(0 13.676)" fill="#f1f2f2"/><rect width="24.198" height="1.245" transform="translate(0 12.43)" fill="#e10e00"/><rect width="12.728" height="1.244" transform="translate(11.47 2.472)" fill="#e10e00"/><rect width="12.728" height="1.224" transform="translate(11.47 0)" fill="#e10e00"/><rect width="12.728" height="1.242" transform="translate(11.47 4.961)" fill="#e10e00"/><rect width="12.728" height="1.246" transform="translate(11.47 7.45)" fill="#e10e00"/><rect width="24.198" height="1.242" transform="translate(0 9.941)" fill="#e10e00"/><rect width="24.198" height="1.245" transform="translate(0 14.92)" fill="#e10e00"/><rect width="11.47" height="8.697" fill="#000d7f"/><path d="M2.637,3.247l.1.328.337,0-.271.2.1.329-.273-.2-.271.2.1-.329-.273-.2.339,0Zm7.694,0,.1.328.337,0-.271.2.1.329-.273-.2-.271.2.1-.329-.271-.2.337,0Zm1.916,0,.1.328.339,0-.275.2.106.329-.273-.2-.271.2.106-.329-.275-.2.337,0Zm-5.765,0,.1.328.337,0-.273.2.106.329-.273-.2-.271.2.1-.329-.273-.2.337,0Zm-1.929,0,.1.328.337,0-.273.2.106.329-.273-.2-.273.2.108-.329-.275-.2.337,0Zm3.847,0,.1.328.337,0-.273.2.106.329L8.4,3.9l-.273.2.1-.329-.273-.2.335,0Z" transform="translate(-1.752 -2.59)" fill="#f1f2f2" fill-rule="evenodd"/><path d="M2.637,11.292l.1.329h.337l-.271.2.1.326-.273-.2-.271.2.1-.326-.273-.2h.339Zm7.694,0,.1.329h.337l-.271.2.1.326-.273-.2-.271.2.1-.326-.271-.2h.337Zm1.916,0,.1.329h.339l-.275.2.106.326-.273-.2-.271.2.106-.326-.275-.2h.337Zm-5.765,0,.1.329h.337l-.273.2.106.326-.273-.2-.271.2.1-.326-.273-.2h.337Zm-1.929,0,.1.329h.337l-.273.2.106.326-.273-.2-.273.2.108-.326-.275-.2H4.45Zm3.847,0,.1.329h.337l-.273.2.106.326-.271-.2-.273.2.1-.326-.273-.2h.335Z" transform="translate(-1.752 -9.006)" fill="#f1f2f2" fill-rule="evenodd"/><path d="M2.637,19.244l.1.328.337,0-.271.2.1.329-.273-.2-.271.2.1-.329-.273-.2.339,0Zm7.694,0,.1.328.337,0-.271.2.1.329-.273-.2-.271.2.1-.329-.271-.2.337,0Zm1.916,0,.1.328.339,0-.275.2.106.329-.273-.2-.271.2.106-.329-.275-.2.337,0Zm-5.765,0,.1.328.337,0-.273.2.106.329-.273-.2-.271.2.1-.329-.273-.2.337,0Zm-1.929,0,.1.328.337,0-.273.2.106.329-.273-.2-.273.2.108-.329-.275-.2.337,0Zm3.847,0,.1.328.337,0-.273.2.106.329L8.4,19.9l-.273.2.1-.329-.273-.2.335,0Z" transform="translate(-1.752 -15.349)" fill="#f1f2f2" fill-rule="evenodd"/><path d="M2.637,27.332l.1.327h.337l-.271.2.1.324-.273-.2-.271.2.1-.324-.273-.2h.339Zm7.694,0,.1.327h.337l-.271.2.1.324-.273-.2-.271.2.1-.324-.271-.2h.337Zm1.916,0,.1.327h.339l-.275.2.106.324-.273-.2-.271.2.106-.324-.275-.2h.337Zm-5.765,0,.1.327h.337l-.273.2.106.324-.273-.2-.271.2.1-.324-.273-.2h.337Zm-1.929,0,.1.327h.337l-.273.2.106.324-.273-.2-.273.2.108-.324-.275-.2H4.45Zm3.847,0,.1.327h.337l-.273.2.106.324-.271-.2-.273.2.1-.324-.273-.2h.335Z" transform="translate(-1.752 -21.799)" fill="#f1f2f2" fill-rule="evenodd"/><path d="M2.637,35.371l.1.329h.337l-.271.2.1.329-.273-.2-.271.2.1-.329L2.2,35.7h.339Zm7.694,0,.1.329h.337l-.271.2.1.329-.273-.2-.271.2.1-.329-.271-.2h.337Zm1.916,0,.1.329h.339l-.275.2.106.329-.273-.2-.271.2.106-.329-.275-.2h.337Zm-5.765,0,.1.329h.337l-.273.2.106.329-.273-.2-.271.2.1-.329-.273-.2h.337Zm-1.929,0,.1.329h.337l-.273.2.106.329-.273-.2-.273.2.108-.329-.275-.2H4.45Zm3.847,0,.1.329h.337l-.273.2.106.329-.271-.2-.273.2.1-.329-.273-.2h.335Z" transform="translate(-1.752 -28.211)" fill="#f1f2f2" fill-rule="evenodd"/><path d="M35.773,31.4l.1.329.337,0-.273.2.108.328-.275-.2-.271.2.1-.328-.273-.2.339,0Z" transform="translate(-28.18 -25.044)" fill="#f1f2f2" fill-rule="evenodd"/><path d="M16.779,31.4l.1.329.337,0-.273.2.106.328-.273-.2-.273.2.105-.328-.273-.2.337,0Z" transform="translate(-13.031 -25.044)" fill="#f1f2f2" fill-rule="evenodd"/><path d="M26.309,31.4l.106.329.337,0-.273.2.1.328-.273-.2-.271.2.106-.328-.275-.2.337,0Z" transform="translate(-20.632 -25.044)" fill="#f1f2f2" fill-rule="evenodd"/><path d="M45.335,31.4l.1.329.337,0-.273.2.1.328-.269-.2-.273.2.106-.328-.273-.2.337,0Z" transform="translate(-35.807 -25.044)" fill="#f1f2f2" fill-rule="evenodd"/><path d="M7.324,31.4l.106.329.337,0-.275.2.106.328-.273-.2-.273.2.106-.328-.271-.2.335,0Z" transform="translate(-5.492 -25.044)" fill="#f1f2f2" fill-rule="evenodd"/><path d="M35.773,23.361l.1.329h.337l-.273.2.108.329-.275-.2-.271.2.1-.329-.273-.2h.339Z" transform="translate(-28.18 -18.632)" fill="#f1f2f2" fill-rule="evenodd"/><path d="M16.779,23.361l.1.329h.337l-.273.2.106.329-.273-.2-.273.2.105-.329-.273-.2h.337Z" transform="translate(-13.031 -18.632)" fill="#f1f2f2" fill-rule="evenodd"/><path d="M26.309,23.361l.106.329h.337l-.273.2.1.329-.273-.2-.271.2.106-.329-.275-.2h.337Z" transform="translate(-20.632 -18.632)" fill="#f1f2f2" fill-rule="evenodd"/><path d="M45.335,23.361l.1.329h.337l-.273.2.1.329-.269-.2-.273.2.106-.329-.273-.2h.337Z" transform="translate(-35.807 -18.632)" fill="#f1f2f2" fill-rule="evenodd"/><path d="M7.324,23.361l.106.329h.337l-.275.2.106.329-.273-.2-.273.2.106-.329-.271-.2H7.22Z" transform="translate(-5.492 -18.632)" fill="#f1f2f2" fill-rule="evenodd"/><path d="M35.773,15.306l.1.329h.337l-.273.2.108.328-.275-.2-.271.2.1-.328-.273-.2h.339Z" transform="translate(-28.18 -12.208)" fill="#f1f2f2" fill-rule="evenodd"/><path d="M16.779,15.306l.1.329h.337l-.273.2.106.328-.273-.2-.273.2.105-.328-.273-.2h.337Z" transform="translate(-13.031 -12.208)" fill="#f1f2f2" fill-rule="evenodd"/><path d="M26.309,15.306l.106.329h.337l-.273.2.1.328-.273-.2-.271.2.106-.328-.275-.2h.337Z" transform="translate(-20.632 -12.208)" fill="#f1f2f2" fill-rule="evenodd"/><path d="M45.335,15.306l.1.329h.337l-.273.2.1.328-.269-.2-.273.2.106-.328-.273-.2h.337Z" transform="translate(-35.807 -12.208)" fill="#f1f2f2" fill-rule="evenodd"/><path d="M7.324,15.306l.106.329h.337l-.275.2.106.328-.273-.2-.273.2.106-.328-.271-.2H7.22Z" transform="translate(-5.492 -12.208)" fill="#f1f2f2" fill-rule="evenodd"/><path d="M35.773,7.278l.1.328h.337l-.273.2.108.329-.275-.2-.271.2.1-.329-.273-.2h.339Z" transform="translate(-28.18 -5.805)" fill="#f1f2f2" fill-rule="evenodd"/><path d="M16.779,7.278l.1.328h.337l-.273.2.106.329-.273-.2-.273.2.105-.329-.273-.2h.337Z" transform="translate(-13.031 -5.805)" fill="#f1f2f2" fill-rule="evenodd"/><path d="M26.309,7.278l.106.328h.337l-.273.2.1.329-.273-.2-.271.2.106-.329-.275-.2h.337Z" transform="translate(-20.632 -5.805)" fill="#f1f2f2" fill-rule="evenodd"/><path d="M45.335,7.278l.1.328h.337l-.273.2.1.329-.269-.2-.273.2.106-.329-.273-.2h.337Z" transform="translate(-35.807 -5.805)" fill="#f1f2f2" fill-rule="evenodd"/><path d="M7.324,7.278l.106.328h.337l-.275.2.106.329-.273-.2-.273.2.106-.329-.271-.2H7.22Z" transform="translate(-5.492 -5.805)" fill="#f1f2f2" fill-rule="evenodd"/></svg>